<svg width="24" height="24" viewBox="0 0 24 24" fill="none" xmlns="http://www.w3.org/2000/svg">
<path d="M20.1876 10.1599C21.3204 9.38471 22.1531 8.2445 22.5468 6.92954C22.6668 7.09274 22.7796 7.26194 22.8852 7.43714C23.61 8.63594 24 10.0819 24 11.8051C24 14.4535 23.0004 16.3051 21.984 17.4919C21.5211 18.0328 20.9885 18.5098 20.4 18.9103V21.1051C20.4002 21.381 20.346 21.6542 20.2405 21.9091C20.135 22.1641 19.9804 22.3957 19.7854 22.5908C19.5903 22.786 19.3588 22.9408 19.1039 23.0464C18.8491 23.152 18.5759 23.2063 18.3 23.2063H16.8C16.3226 23.2063 15.8648 23.0167 15.5272 22.6791C15.1896 22.3416 15 21.8837 15 21.4063H12.6C12.6 21.8837 12.4104 22.3416 12.0728 22.6791C11.7352 23.0167 11.2774 23.2063 10.8 23.2063H9.3C8.74305 23.2063 8.2089 22.9851 7.81508 22.5913C7.42125 22.1974 7.2 21.6633 7.2 21.1063V20.2867C7.01198 20.2233 6.82626 20.1533 6.6432 20.0767C5.71977 19.6957 4.87812 19.1409 4.164 18.4423C3.41067 17.6798 2.76291 16.8197 2.238 15.8851C2.1991 15.8076 2.14353 15.7396 2.07528 15.6861C2.00702 15.6326 1.92777 15.5948 1.8432 15.5755C1.32837 15.4893 0.860752 15.2234 0.523324 14.8252C0.185896 14.4269 0.000486065 13.9219 0 13.3999V11.2963C0 10.2847 0.732 9.42194 1.728 9.25634C1.8324 9.23834 1.9872 9.13394 2.0604 8.91554C2.2908 8.22314 2.7384 7.19474 3.564 6.36914C4.15951 5.78652 4.82833 5.2839 5.5536 4.87394C5.7184 4.78034 5.8672 4.70034 6 4.63394V1.21034C6 0.084744 7.356 -0.377256 8.088 0.351144C8.484 0.745944 9.06 1.27154 9.6972 1.71194C10.3344 2.15234 10.9416 2.44034 11.442 2.50394C10.8486 3.68021 10.6588 5.0191 10.902 6.31394C11.1192 7.46234 11.9988 8.18834 12.8244 8.53154L17.2596 10.3675C18.0864 10.7095 19.2204 10.8175 20.1876 10.1587M7.2 10.0051C7.51826 10.0051 7.82348 9.87872 8.04853 9.65367C8.27357 9.42863 8.4 9.1234 8.4 8.80514C8.4 8.48688 8.27357 8.18166 8.04853 7.95661C7.82348 7.73157 7.51826 7.60514 7.2 7.60514C6.88174 7.60514 6.57652 7.73157 6.35147 7.95661C6.12643 8.18166 6 8.48688 6 8.80514C6 9.1234 6.12643 9.42863 6.35147 9.65367C6.57652 9.87872 6.88174 10.0051 7.2 10.0051ZM19.5108 9.16874C20.0678 8.78781 20.5383 8.29371 20.8914 7.71868C21.2446 7.14365 21.4725 6.50062 21.5604 5.83154C21.6498 5.14363 21.589 4.44452 21.3823 3.78235C21.1755 3.12018 20.8277 2.51069 20.3628 1.99585C19.8979 1.48102 19.3269 1.07308 18.6891 0.800129C18.0514 0.527176 17.362 0.395697 16.6686 0.414747C15.9752 0.433797 15.2941 0.602923 14.6723 0.910477C14.0505 1.21803 13.5028 1.65671 13.0668 2.19629C12.6309 2.73587 12.317 3.36354 12.1469 4.03606C11.9769 4.70858 11.9546 5.40998 12.0816 6.09194C12.112 6.24794 12.164 6.39394 12.2376 6.52994C12.2976 6.64194 12.3696 6.74594 12.4536 6.84194C12.672 7.09394 12.9648 7.29074 13.284 7.42394L17.7192 9.25994C18.3072 9.50354 18.9852 9.52754 19.5108 9.16874Z" fill="#E068CE"/>
</svg>
