<svg width="256" height="256" viewBox="0 0 256 256" fill="none" xmlns="http://www.w3.org/2000/svg">
<path d="M232 208C232 210.122 231.157 212.157 229.657 213.657C228.157 215.157 226.122 216 224 216H32C29.8783 216 27.8434 215.157 26.3431 213.657C24.8429 212.157 24 210.122 24 208C24 205.878 24.8429 203.843 26.3431 202.343C27.8434 200.843 29.8783 200 32 200H224C226.122 200 228.157 200.843 229.657 202.343C231.157 203.843 232 205.878 232 208ZM232 56V168C232 172.243 230.314 176.313 227.314 179.314C224.313 182.314 220.243 184 216 184H40C35.7565 184 31.6869 182.314 28.6863 179.314C25.6857 176.313 24 172.243 24 168V56C24 51.7565 25.6857 47.6869 28.6863 44.6863C31.6869 41.6857 35.7565 40 40 40H216C220.243 40 224.313 41.6857 227.314 44.6863C230.314 47.6869 232 51.7565 232 56ZM164 112C164 110.715 163.69 109.448 163.096 108.308C162.502 107.168 161.643 106.188 160.59 105.45L120.59 77.45C119.391 76.6103 117.985 76.1155 116.525 76.0195C115.065 75.9234 113.606 76.2298 112.308 76.9053C111.009 77.5807 109.921 78.5993 109.162 79.8503C108.402 81.1012 108 82.5365 108 84V140C108 141.463 108.402 142.899 109.162 144.15C109.921 145.401 111.009 146.419 112.308 147.095C113.606 147.77 115.065 148.077 116.525 147.981C117.985 147.884 119.391 147.39 120.59 146.55L160.59 118.55C161.643 117.812 162.502 116.832 163.096 115.692C163.69 114.552 164 113.285 164 112Z" fill="#E068CE"/>
</svg>
